<svg width="18.000000" height="19.000000" viewBox="0 0 18 19" fill="none" xmlns="http://www.w3.org/2000/svg" xmlns:xlink="http://www.w3.org/1999/xlink">
	<desc>
			Created with Pixso.
	</desc>
	<defs/>
	<path d="M2.13959 0L15.8604 0C17.0421 0 18 1.00854 18 2.25317L18 16.7468C18 17.991 17.0421 19 15.8604 19L2.13959 19C0.957886 19 0 17.991 0 16.7468L0 2.25317C0 1.00854 0.957886 0 2.13959 0ZM14.2499 2.375C13.9224 2.375 13.6565 2.64087 13.6565 2.96851L13.6565 4.75024C13.6565 5.07764 13.9224 5.34351 14.2499 5.34351L16.0311 5.34351C16.3591 5.34351 16.6249 5.07764 16.6249 4.75024L16.6249 2.96851C16.6249 2.64087 16.3591 2.375 16.0311 2.375L14.2499 2.375ZM9.52203 5.87671C11.54 5.87671 13.1761 7.50928 13.1761 9.52197C13.1761 11.5354 11.54 13.1672 9.52203 13.1672C7.50452 13.1672 5.86847 11.5354 5.86847 9.52197C5.86847 7.50928 7.50452 5.87671 9.52203 5.87671ZM16.6249 17.2188C16.953 17.2188 17.2188 16.9524 17.2188 16.625L17.2188 7.71851L14.8438 7.71851C15.2272 8.17676 15.3024 8.99438 15.3024 9.52197C15.3024 12.7014 12.7092 15.2883 9.52203 15.2883C6.33539 15.2883 3.74219 12.7014 3.74219 9.52197C3.74219 8.99438 3.84686 8.16382 4.15625 7.71851L1.78119 7.71851L1.78119 16.625C1.78119 16.9524 2.047 17.2188 2.37506 17.2188L16.6249 17.2188Z" clip-rule="evenodd" fill="#8DD83D" fill-opacity="1.000000" fill-rule="evenodd"/>
</svg>
