<svg width="21.000000" height="18.000000" viewBox="0 0 21 18" fill="none" xmlns="http://www.w3.org/2000/svg" xmlns:xlink="http://www.w3.org/1999/xlink">
	<desc>
			Created with Pixso.
	</desc>
	<defs/>
	<path d="M20.42 0.33C19.58 0.85 18.66 1.23 17.68 1.43C16.89 0.55 15.77 0 14.53 0C12.16 0 10.23 2.03 10.23 4.54C10.23 4.9 10.26 5.24 10.34 5.57C6.76 5.38 3.58 3.58 1.46 0.82C1.09 1.5 0.87 2.28 0.87 3.11C0.87 4.69 1.63 6.08 2.79 6.89C2.09 6.87 1.42 6.66 0.84 6.33L0.84 6.38C0.84 8.58 2.32 10.42 4.3 10.84C3.93 10.94 3.55 11 3.16 11C2.88 11 2.61 10.97 2.35 10.92C2.9 12.72 4.49 14.04 6.37 14.07C4.9 15.29 3.04 16.02 1.02 16.02C0.68 16.02 0.33 16 0 15.96C1.9 17.24 4.17 18 6.6 18C14.53 18 18.86 11.07 18.86 5.07C18.86 4.87 18.85 4.67 18.85 4.48C19.69 3.84 20.42 3.04 21 2.13C20.22 2.49 19.39 2.73 18.52 2.84C19.41 2.28 20.09 1.39 20.42 0.33Z" fill="#8DD83D" fill-opacity="1.000000" fill-rule="evenodd"/>
</svg>
