<svg width="20.000000" height="20.000000" viewBox="0 0 20 20" fill="none" xmlns="http://www.w3.org/2000/svg" xmlns:xlink="http://www.w3.org/1999/xlink">
	<desc>
			Created with Pixso.
	</desc>
	<defs/>
	<path d="M13.5 12.3333C15.4166 11.1666 16.6666 9.08334 16.6666 6.66668C16.6666 3 13.6666 0 10 0C6.33337 0 3.33337 3 3.33337 6.66668C3.33337 9.08334 4.58325 11.1667 6.5 12.3333C3.16663 13.5833 0.666626 16.5 0 20L1.66663 20C2.5 16.1667 5.91675 13.3333 10 13.3333C14.0833 13.3333 17.5 16.1666 18.3334 20L20 20C19.3334 16.4167 16.8334 13.5 13.5 12.3333ZM10 1.66668C7.25 1.66668 5 3.9167 5 6.66668C5 9.41666 7.25 11.6667 10 11.6667C12.75 11.6667 15 9.41666 15 6.66668C15 3.9167 12.75 1.66668 10 1.66668Z" clip-rule="evenodd" fill="#8DD83D" fill-opacity="1.000000" fill-rule="evenodd"/>
</svg>
