<svg width="97.000000" height="29.000000" viewBox="0 0 97 29" fill="none" xmlns="http://www.w3.org/2000/svg" xmlns:xlink="http://www.w3.org/1999/xlink">
	<desc>
			Created with Pixso.
	</desc>
	<defs/>
	<path d="M62.6057 6.94661C64.4743 8.42859 65.1396 12.2268 62.2751 14.0157C62.3339 14.0572 62.399 14.1014 62.469 14.149C63.319 14.7262 64.8989 15.7993 64.7614 18.4477C64.6301 21.001 62.9029 22.7683 60.1414 23.1753C58.9804 23.347 58.0322 23.3502 51.729 23.3448C51.4074 23.3446 51.1468 23.086 51.1468 22.7672L51.1468 15.2096C50.6269 15.2096 50.1976 15.2127 49.8417 15.2153C48.2554 15.2268 48.1302 15.2277 47.9582 14.8948C47.7877 14.5637 47.9334 14.3694 48.3587 13.8018C48.4392 13.6945 48.5296 13.5738 48.6298 13.4363C48.8138 13.1836 48.9149 13.1843 50.1467 13.1928C50.4174 13.1946 50.7428 13.1969 51.1357 13.1969L51.1357 6.28017C51.1357 5.96136 51.3969 5.70259 51.7183 5.70259C52.763 5.70259 53.6911 5.69781 54.5198 5.69354C59.6747 5.66701 60.9834 5.66027 62.6057 6.94661ZM60.5636 12.7531C59.5431 13.2144 59.204 13.213 55.7128 13.1989C55.0519 13.1962 54.2782 13.1931 53.3655 13.1926L53.3655 7.78036C53.5562 7.74969 57.4147 7.75564 58.7152 7.78594C59.2305 7.79803 59.8003 7.90269 60.3626 8.08821C61.3907 8.42859 61.9547 9.18519 61.9933 10.2762C62.0349 11.4719 61.554 12.3053 60.5636 12.7531ZM53.3631 15.2029L53.3631 21.2841C53.3925 21.2877 53.4119 21.2903 53.4315 21.2924C53.5246 21.3022 53.6192 21.2977 54.8122 21.3005C55.2417 21.3016 55.6355 21.3036 55.9982 21.3053C58.834 21.3194 59.7628 21.324 60.8567 20.835C62.0276 20.3102 62.6321 19.2872 62.5586 17.9555C62.4001 15.0766 59.3431 15.1226 55.2676 15.184C54.6537 15.1933 54.0167 15.2029 53.3631 15.2029Z" clip-rule="evenodd" fill="#8DD83D" fill-opacity="1.000000" fill-rule="evenodd"/>
	<path d="M82.0391 11.5641C80.0803 3.90496 69.9154 3.25302 66.5438 9.68135C63.5415 15.4053 66.4864 24.1555 74.3816 23.7086C80.8491 23.3452 83.4857 17.2169 82.0391 11.5641ZM69.0827 9.79419C66.2391 13.5811 67.5077 21.6355 73.9431 21.6355C78.6514 21.6355 80.9524 17.0392 79.9502 12.4605C78.6769 6.64379 71.9841 5.9318 69.0827 9.79419Z" clip-rule="evenodd" fill="#8DD83D" fill-opacity="1.000000" fill-rule="evenodd"/>
	<path d="M89.73 14.11C95.72 6.05 95.56 6.47 95.34 6.03C95.13 5.63 94.79 5.71 93.65 5.71C93.25 5.71 93.58 5.42 88.41 12.37C83.26 5.45 83.58 5.73 83.17 5.73C82.02 5.73 81.69 5.64 81.48 6.05C81.38 6.24 81.4 6.47 81.53 6.65L87.08 14.11C80.45 23.07 80.67 22.57 80.89 23.01C81.1 23.41 81.43 23.32 82.58 23.32C82.77 23.32 82.94 23.24 83.05 23.09L88.41 15.89L93.76 23.08C93.98 23.38 94.2 23.31 95.4 23.31C95.62 23.31 95.82 23.19 95.92 22.99C96.14 22.55 96.33 23.02 89.73 14.11Z" fill="#8DD83D" fill-opacity="1.000000" fill-rule="nonzero"/>
	<path d="M43.68 14.11C49.65 6.08 49.52 6.47 49.29 6.03C49.19 5.84 48.99 5.72 48.77 5.72C47.56 5.72 47.36 5.66 47.14 5.95L42.36 12.37C37.21 5.45 37.53 5.72 37.12 5.72C35.97 5.72 35.65 5.64 35.44 6.04C35.34 6.24 35.36 6.47 35.49 6.65L41.04 14.11C34.4 23.07 34.62 22.57 34.85 23C35.05 23.41 35.39 23.32 36.54 23.32C36.95 23.32 36.55 23.7 42.36 15.89C48.18 23.7 47.78 23.32 48.19 23.32C48.22 23.32 49.37 23.32 49.36 23.32C49.87 23.32 50.13 22.72 49.8 22.35L43.68 14.11Z" fill="#8DD83D" fill-opacity="1.000000" fill-rule="nonzero"/>
	<path d="M8.78 2.25C10.31 2.44 12.19 3.12 14.38 4.27C14.51 4.34 14.68 4.35 14.82 4.27C16.98 3.12 18.85 2.43 20.38 2.24C20.85 2.18 20.96 1.55 20.52 1.35C16.82 -0.36 12.57 -0.47 8.64 1.36C8.44 1.45 8.34 1.65 8.37 1.86C8.4 2.07 8.57 2.23 8.78 2.25Z" fill="#8DD83D" fill-opacity="1.000000" fill-rule="nonzero"/>
	<path d="M24.54 23.8C24.51 23.62 23.82 19.27 14.86 11.92C14.68 11.78 14.43 11.78 14.26 11.91C6.36 18.16 3.55 24.14 4.84 25.24C7.89 27.85 10.8 28.96 14.59 28.96C18.71 28.96 21.32 27.59 24.19 25.38C24.75 24.96 24.55 23.85 24.54 23.82L24.54 23.8Z" fill="#8DD83D" fill-opacity="1.000000" fill-rule="nonzero"/>
	<path d="M24.61 4.19C23.01 3.94 19.98 6.64 18.8 7.77C18.63 7.94 18.61 8.22 18.76 8.41C24.54 15.57 26 19.66 26.21 21.83C26.23 22.03 26.38 22.19 26.58 22.24C26.78 22.29 26.98 22.2 27.09 22.03C28.48 19.78 29.21 17.18 29.21 14.51C29.21 8.61 25.14 4.28 24.61 4.19Z" fill="#8DD83D" fill-opacity="1.000000" fill-rule="nonzero"/>
	<path d="M10.4 7.77C7.03 4.53 5.35 4.18 4.78 4.18C4.71 4.18 4.65 4.18 4.59 4.19C4.49 4.21 4.4 4.26 4.33 4.32C-0.37 8.94 -1.46 16.26 2.11 22.03C2.2 22.17 2.35 22.25 2.52 22.25C2.76 22.25 2.97 22.07 2.99 21.83C3.2 19.66 4.66 15.57 10.44 8.41C10.59 8.22 10.57 7.94 10.4 7.77Z" fill="#8DD83D" fill-opacity="1.000000" fill-rule="nonzero"/>
	<path d="M5.68 21.42C4.88 22.84 4.7 23.66 4.7 23.69C4.63 24.12 4.59 24.96 4.93 25.24C8.04 27.85 11.01 28.96 14.87 28.96C15.57 28.96 16.23 28.92 16.86 28.84C12.03 28.26 7.91 25.41 5.68 21.42Z" fill="#79C422" fill-opacity="1.000000" fill-rule="nonzero"/>
	<path d="M3.86 14.5C3.86 10.94 5.18 7.69 7.37 5.17C6.02 4.31 5.23 4.18 4.87 4.18C4.8 4.18 4.73 4.18 4.67 4.19C4.57 4.21 4.48 4.26 4.41 4.32C-0.38 8.94 -1.49 16.26 2.15 22.03C2.24 22.17 2.4 22.25 2.56 22.25C2.81 22.25 3.02 22.07 3.05 21.83C3.14 20.89 3.47 19.61 4.28 17.88C4.01 16.79 3.86 15.66 3.86 14.5Z" fill="#79C422" fill-opacity="1.000000" fill-rule="nonzero"/>
	<path d="M10.37 2.54C12.25 1.29 14.43 0.46 16.78 0.16C13.81 -0.22 11.22 0.26 8.8 1.36C8.6 1.45 8.49 1.65 8.53 1.86C8.61 2.36 8.99 2.17 10.37 2.54Z" fill="#79C422" fill-opacity="1.000000" fill-rule="nonzero"/>
</svg>
