<svg width="63.000000" height="63.000000" viewBox="0 0 63 63" fill="none" xmlns="http://www.w3.org/2000/svg" xmlns:xlink="http://www.w3.org/1999/xlink">
	<desc>
			Created with Pixso.
	</desc>
	<defs/>
	<path d="M13.9472 4.50665C13.9766 4.48181 14.001 4.45441 14.0329 4.42957C14.9046 3.7406 16.741 3.12378 19.3953 3.86249C22.5712 4.74292 26.8366 7.21771 31.4742 10.8489C31.4742 10.8489 44.8828 -0.112 49.4445 4.99664L49.4445 4.99414C48.9622 4.40222 48.0268 3.75055 47.684 3.54413C42.9557 0.658997 37.417 -0.999939 31.5037 -0.999939C25.1813 -0.999939 19.4835 0.741089 14.552 3.99683C14.3831 4.1087 14.1259 4.31519 13.9472 4.50665ZM54.6111 9.25964C54.4716 9.10297 54.3198 8.95624 54.1802 8.79456C53.0269 7.50867 51.6091 7.19775 50.331 7.28235C49.1679 7.65295 43.7932 9.6203 37.1697 15.9725C37.1697 15.9725 44.6257 23.337 49.1924 30.8657C53.752 38.3908 56.4792 44.3057 54.807 52.5122C54.76 52.2393 54.0076 48.1008 49.9073 42.2471C48.9108 40.8293 45.2697 36.4047 43.23 34.0817C41.2075 31.776 38.1981 28.4731 34.2241 24.4587C33.3548 23.5808 32.4366 22.6655 31.4719 21.7179C31.4719 21.7179 30.0198 23.1928 28.1295 25.1328L28.1295 25.1303C25.7103 27.6125 22.5736 30.8508 20.8327 32.7411C17.7327 36.1013 8.85168 46.6543 8.35217 52.5713C8.35217 52.5713 6.37616 47.878 10.7126 37.0538C13.5457 29.9778 22.106 19.3526 25.6809 15.8904C25.6809 15.8904 22.4145 12.2393 18.3155 9.71729L18.291 9.70984C18.291 9.70984 18.2445 9.67249 18.1711 9.62524C16.2 8.4314 14.0476 7.51117 11.9761 7.38928C9.86053 7.54102 8.52112 9.11292 8.52112 9.11292C3.23462 14.8384 0 22.5337 0 31.0001C0 48.6714 14.1039 63 31.5037 63C40.7373 63 49.0454 58.9559 54.8094 52.5266L54.8083 52.5199C59.8967 46.8372 63 39.2878 63 30.9976C63 22.6058 59.8193 14.9677 54.6111 9.25964ZM54.8083 52.5199C54.8071 52.5213 54.8058 52.5227 54.8046 52.524C54.8054 52.5201 54.8062 52.5162 54.807 52.5122C54.8075 52.5153 54.808 52.5178 54.8083 52.5199Z" clip-rule="evenodd" fill="#FFFFFF" fill-opacity="1.000000" fill-rule="evenodd"/>
</svg>
